<mxfile host="app.diagrams.net" modified="2024-04-17T11:50:46.222Z" agent="Mozilla/5.0 (Macintosh; Intel Mac OS X 10_15_7) AppleWebKit/537.36 (KHTML, like Gecko) Chrome/123.0.0.0 Safari/537.36" etag="7Ki3To7losOUeQyCYMCm" version="24.2.5" type="github">
  <diagram name="Page-1" id="4rOUkTfyeXpjpHmK10y0">
    <mxGraphModel dx="774" dy="1844" grid="1" gridSize="10" guides="1" tooltips="1" connect="1" arrows="1" fold="1" page="1" pageScale="1" pageWidth="827" pageHeight="1169" math="0" shadow="0">
      <root>
        <mxCell id="0" />
        <mxCell id="1" parent="0" />
        <mxCell id="rIhaAf_YXnxoSZRtvxPU-1" value="" style="endArrow=classic;html=1;rounded=0;strokeWidth=7;" edge="1" parent="1">
          <mxGeometry width="50" height="50" relative="1" as="geometry">
            <mxPoint x="140" y="180" as="sourcePoint" />
            <mxPoint x="280" as="targetPoint" />
            <Array as="points" />
          </mxGeometry>
        </mxCell>
        <mxCell id="rIhaAf_YXnxoSZRtvxPU-2" value="Assume this vector represents narrative for a particular media outlet&lt;div&gt;Let&#39;s say a direct example, this is the characteristic vector for the&amp;nbsp;&lt;/div&gt;&lt;div&gt;Daily Mirror&#39;s &#39;stance&#39; on the Aragalaya&lt;/div&gt;" style="text;align=left;fontStyle=1;verticalAlign=middle;spacingLeft=3;spacingRight=3;strokeColor=none;rotatable=0;points=[[0,0.5],[1,0.5]];portConstraint=eastwest;html=1;" vertex="1" parent="1">
          <mxGeometry y="190" width="440" height="60" as="geometry" />
        </mxCell>
        <mxCell id="rIhaAf_YXnxoSZRtvxPU-5" value="How did we get here (stance)?&amp;nbsp; Assume it is determined by two varibles&lt;br&gt;1) Sentiment (Tone, etc)&lt;div&gt;2) Narrative style (words, dialect, dog-whistles, rhetoric)&lt;/div&gt;" style="text;align=left;fontStyle=1;verticalAlign=middle;spacingLeft=3;spacingRight=3;strokeColor=none;rotatable=0;points=[[0,0.5],[1,0.5]];portConstraint=eastwest;html=1;" vertex="1" parent="1">
          <mxGeometry x="10" y="260" width="440" height="60" as="geometry" />
        </mxCell>
        <mxCell id="rIhaAf_YXnxoSZRtvxPU-6" value="Now consider this, if we pick this topic, and plot all of our news-outlets coverage&amp;nbsp;&lt;div&gt;of a particular event, where its position in this vector space is determined by&amp;nbsp;&lt;/div&gt;&lt;div&gt;the two variables defined above, it allows us to identify:&lt;/div&gt;&lt;div&gt;&lt;br&gt;&lt;/div&gt;&lt;div&gt;1) Convergence or divergence on topic between outlets&lt;/div&gt;" style="text;align=left;fontStyle=1;verticalAlign=middle;spacingLeft=3;spacingRight=3;strokeColor=none;rotatable=0;points=[[0,0.5],[1,0.5]];portConstraint=eastwest;html=1;" vertex="1" parent="1">
          <mxGeometry x="10" y="340" width="440" height="60" as="geometry" />
        </mxCell>
      </root>
    </mxGraphModel>
  </diagram>
</mxfile>
